<svg width="720" height="900" viewBox="0 0 720 900" fill="none" xmlns="http://www.w3.org/2000/svg">
<circle cx="541.5" cy="717.5" r="467.5" fill="url(#paint0_linear_303_2)" fill-opacity="0.03"/>
<circle cx="333.5" cy="533.5" r="467.5" fill="url(#paint1_linear_303_2)" fill-opacity="0.02"/>
<circle cx="296" cy="472" r="545" fill="url(#paint2_linear_303_2)" fill-opacity="0.03"/>
<circle cx="632" cy="784" r="350" fill="url(#paint3_linear_303_2)" fill-opacity="0.01"/>
<rect x="103.495" y="296.004" width="82.8842" height="82.8842" rx="18" fill="url(#paint4_linear_303_2)" fill-opacity="0.4"/>
<g clip-path="url(#clip0_303_2)">
<path d="M162.74 328.682C162.167 328.483 161.573 328.294 160.962 328.116C161.062 327.702 161.154 327.292 161.237 326.89C162.583 320.285 161.703 314.964 158.696 313.213C155.814 311.533 151.1 313.284 146.338 317.471C145.881 317.874 145.421 318.3 144.962 318.747C144.657 318.451 144.351 318.166 144.047 317.893C139.057 313.415 134.055 311.529 131.052 313.286C128.172 314.97 127.32 319.972 128.532 326.232C128.649 326.836 128.785 327.454 128.94 328.082C128.232 328.285 127.549 328.501 126.895 328.731C121.045 330.792 117.309 334.023 117.309 337.373C117.309 340.834 121.32 344.305 127.413 346.409C127.894 346.575 128.393 346.732 128.907 346.881C128.74 347.56 128.595 348.226 128.473 348.875C127.317 355.025 128.22 359.909 131.092 361.583C134.059 363.312 139.038 361.535 143.886 357.253C144.269 356.914 144.654 356.555 145.039 356.179C145.538 356.665 146.037 357.125 146.533 357.556C151.229 361.64 155.867 363.289 158.736 361.61C161.7 359.876 162.663 354.63 161.413 348.246C161.317 347.759 161.206 347.261 161.081 346.754C161.431 346.649 161.774 346.542 162.109 346.429C168.444 344.309 172.565 340.88 172.565 337.373C172.565 334.011 168.708 330.759 162.74 328.682ZM161.367 344.165C161.064 344.266 160.754 344.364 160.438 344.459C159.739 342.222 158.795 339.843 157.64 337.385C158.743 334.986 159.65 332.637 160.33 330.414C160.895 330.58 161.443 330.754 161.972 330.938C167.085 332.717 170.204 335.347 170.204 337.373C170.204 339.532 166.836 342.334 161.367 344.165ZM159.097 348.71C159.65 351.532 159.729 354.084 159.363 356.079C159.034 357.872 158.372 359.067 157.554 359.546C155.812 360.564 152.088 359.24 148.072 355.748C147.612 355.347 147.148 354.92 146.683 354.467C148.24 352.747 149.796 350.746 151.314 348.525C153.986 348.285 156.509 347.893 158.798 347.359C158.911 347.818 159.011 348.269 159.097 348.71ZM136.147 359.37C134.446 359.977 133.091 359.994 132.271 359.517C130.528 358.501 129.804 354.58 130.792 349.319C130.905 348.717 131.04 348.098 131.196 347.466C133.459 347.972 135.964 348.335 138.642 348.555C140.171 350.729 141.772 352.727 143.385 354.477C143.033 354.821 142.682 355.148 142.332 355.457C140.189 357.35 138.04 358.694 136.147 359.37ZM128.176 344.152C125.482 343.221 123.257 342.012 121.732 340.692C120.361 339.506 119.669 338.329 119.669 337.373C119.669 335.34 122.669 332.747 127.672 330.984C128.279 330.77 128.915 330.568 129.574 330.379C130.265 332.652 131.172 335.028 132.267 337.431C131.158 339.87 130.238 342.284 129.54 344.584C129.07 344.447 128.615 344.303 128.176 344.152ZM130.848 325.774C129.81 320.411 130.499 316.365 132.235 315.35C134.083 314.269 138.171 315.811 142.48 319.676C142.755 319.923 143.031 320.182 143.309 320.45C141.703 322.192 140.117 324.175 138.601 326.336C136.003 326.579 133.515 326.97 131.228 327.494C131.084 326.909 130.957 326.335 130.848 325.774ZM154.683 331.721C154.136 330.767 153.575 329.835 153.003 328.929C154.766 329.154 156.455 329.453 158.041 329.819C157.565 331.361 156.971 332.974 156.273 334.627C155.772 333.665 155.241 332.696 154.683 331.721ZM144.963 322.154C146.052 323.346 147.142 324.677 148.215 326.121C147.134 326.07 146.04 326.043 144.937 326.043C143.844 326.043 142.758 326.069 141.684 326.12C142.758 324.689 143.857 323.36 144.963 322.154ZM135.181 331.738C134.635 332.695 134.115 333.659 133.621 334.625C132.934 332.978 132.346 331.358 131.866 329.793C133.442 329.437 135.123 329.145 136.875 328.925C136.295 329.839 135.729 330.778 135.181 331.737V331.738ZM136.925 345.992C135.116 345.788 133.409 345.511 131.833 345.165C132.321 343.573 132.922 341.918 133.624 340.235C134.119 341.201 134.641 342.165 135.191 343.124H135.191C135.75 344.102 136.33 345.059 136.925 345.992ZM145.029 352.76C143.91 351.54 142.794 350.191 141.704 348.74C142.762 348.782 143.841 348.803 144.937 348.803C146.063 348.803 147.177 348.777 148.272 348.728C147.196 350.206 146.11 351.557 145.029 352.76ZM156.295 340.149C157.034 341.851 157.656 343.496 158.151 345.061C156.549 345.431 154.819 345.728 152.996 345.949C153.57 345.031 154.136 344.083 154.693 343.108C155.255 342.122 155.79 341.134 156.295 340.149ZM152.648 341.916C151.784 343.43 150.897 344.874 149.997 346.238C148.357 346.357 146.663 346.418 144.937 346.418C143.217 346.418 141.545 346.364 139.934 346.258C138.998 344.876 138.091 343.427 137.233 341.929H137.233C136.377 340.435 135.59 338.929 134.876 337.43C135.589 335.929 136.375 334.42 137.226 332.929L137.226 332.929C138.079 331.434 138.977 329.992 139.905 328.619C141.549 328.494 143.234 328.428 144.937 328.428H144.937C146.648 328.428 148.335 328.494 149.978 328.621C150.891 329.984 151.783 331.421 152.64 332.916C153.507 334.429 154.302 335.927 155.022 337.397C154.305 338.891 153.51 340.405 152.648 341.916ZM157.517 315.279C159.368 316.357 160.087 320.706 158.925 326.409C158.851 326.773 158.767 327.143 158.676 327.519C156.384 326.984 153.895 326.586 151.288 326.339C149.77 324.154 148.196 322.168 146.617 320.448C147.042 320.036 147.466 319.642 147.888 319.271C151.967 315.683 155.78 314.267 157.517 315.279ZM144.937 332.387C147.662 332.387 149.871 334.619 149.871 337.373C149.871 340.127 147.662 342.359 144.937 342.359C142.212 342.359 140.003 340.127 140.003 337.373C140.003 334.619 142.212 332.387 144.937 332.387Z" fill="white"/>
</g>
<rect x="42" y="410.972" width="49.9088" height="49.9088" rx="18" fill="url(#paint5_linear_303_2)" fill-opacity="0.4"/>
<g clip-path="url(#clip1_303_2)">
<path d="M78.6185 424.898C75.6348 420.757 69.742 419.53 65.4812 422.162L57.9982 426.787C55.9542 428.034 54.5464 430.058 54.1198 432.363C53.7629 434.283 54.0766 436.263 55.0114 437.991C54.3709 438.933 53.934 439.992 53.7272 441.102C53.2965 443.451 53.8599 445.87 55.29 447.811C58.2743 451.953 64.1671 453.18 68.4273 450.547L75.9102 445.923C77.9544 444.676 79.3623 442.652 79.7886 440.347C80.1455 438.427 79.832 436.446 78.8977 434.718C79.5381 433.776 79.9748 432.718 80.1814 431.607C80.6123 429.258 80.049 426.839 78.6186 424.898" fill="white" fill-opacity="0.4"/>
<path d="M64.7495 448.205C62.3368 448.813 59.7889 447.898 58.3679 445.911C57.5075 444.744 57.1685 443.289 57.4276 441.876C57.4711 441.646 57.5308 441.419 57.6065 441.198L57.7475 440.781L58.131 441.054C59.0166 441.685 60.0068 442.165 61.059 442.473L61.3372 442.555L61.3116 442.824C61.2776 443.207 61.3845 443.589 61.6135 443.903C62.0411 444.501 62.8082 444.777 63.5348 444.595C63.6975 444.552 63.8526 444.486 63.9946 444.399L71.48 439.773C71.8503 439.547 72.1055 439.18 72.1833 438.763C72.2608 438.337 72.1587 437.898 71.8999 437.546C71.472 436.948 70.7047 436.672 69.9777 436.854C69.8153 436.896 69.6604 436.962 69.5186 437.05L66.6622 438.816C66.1925 439.105 65.68 439.324 65.1422 439.463C62.7295 440.071 60.1817 439.155 58.7608 437.169C57.9003 436.001 57.5613 434.547 57.8204 433.133C58.077 431.747 58.9239 430.53 60.1536 429.78L67.6383 425.154C68.1082 424.864 68.6211 424.645 69.1593 424.506C71.572 423.898 74.1198 424.813 75.5407 426.8C76.4012 427.967 76.7401 429.422 76.481 430.835C76.4374 431.065 76.3777 431.291 76.3022 431.513L76.1612 431.93L75.7779 431.657C74.8923 431.026 73.902 430.546 72.8497 430.238L72.5715 430.156L72.5971 429.887C72.6308 429.504 72.5239 429.122 72.2952 428.808C71.8676 428.209 71.1005 427.933 70.3738 428.116C70.2112 428.158 70.0561 428.224 69.9141 428.312L62.4287 432.938C62.0584 433.164 61.8033 433.531 61.726 433.948C61.6479 434.374 61.7498 434.812 62.0088 435.165C62.4367 435.763 63.204 436.039 63.9309 435.857C64.0936 435.814 64.2486 435.748 64.3907 435.661L67.2467 433.896C67.7161 433.606 68.2287 433.387 68.7665 433.248C71.1792 432.64 73.727 433.555 75.1479 435.542C76.0084 436.709 76.3474 438.164 76.0883 439.577C75.8316 440.964 74.9847 442.181 73.7551 442.932L66.2704 447.557C65.8005 447.847 65.2875 448.066 64.7494 448.205" fill="white"/>
</g>
<rect x="57.1509" y="201.533" width="62.386" height="62.386" rx="18" fill="url(#paint6_linear_303_2)" fill-opacity="0.4"/>
<path d="M82.9413 251.439C80.7594 250.493 78.7176 248.086 78.7129 245.623C78.707 242.938 80.4016 240.658 82.5092 239.16C82.2558 240.121 82.1176 241 82.7453 241.86C83.329 242.659 84.351 243.048 85.316 242.837C87.5711 242.342 87.6744 239.852 86.3376 238.402C85.0159 236.966 83.7372 235.343 84.2403 233.261C84.4922 232.217 85.1306 231.239 85.9393 230.54C85.3178 232.18 87.0841 233.798 88.2481 234.604C90.2671 236.002 92.4821 237.058 94.3385 238.697C96.2913 240.42 97.7333 242.749 97.442 245.45C97.1265 248.378 94.8096 250.414 92.2111 251.442C97.7024 250.225 103.377 245.945 103.493 239.829C103.589 234.798 100.152 230.926 95.8942 228.709L95.6717 228.587C95.7886 228.872 95.8269 229.114 95.8224 229.331C95.8607 229.171 95.8864 229.007 95.8938 228.837C95.8919 229.048 95.8651 229.247 95.8158 229.434L95.8224 229.331C95.7585 229.602 95.6511 229.855 95.5073 230.085L95.5698 230.018C94.7203 231.433 92.4207 231.74 91.2847 230.275C89.4584 227.918 91.3229 225.378 91.5837 222.882C91.9102 219.755 89.9571 216.719 87.5354 214.902C88.8692 217.068 87.1121 219.935 85.7062 221.537C84.3429 223.091 82.685 224.388 81.1802 225.799C79.5635 227.315 78.0093 228.912 76.6806 230.691C74.0232 234.252 72.3962 238.731 73.5918 243.174C74.7867 247.614 78.6165 250.44 82.9413 251.439Z" fill="white"/>
<g filter="url(#filter0_f_303_2)">
<rect x="-30" y="306" width="44" height="44" rx="18" fill="url(#paint7_linear_303_2)" fill-opacity="0.4"/>
</g>
<rect x="687" y="187" width="65" height="65" rx="18" fill="url(#paint8_linear_303_2)" fill-opacity="0.4"/>
<g filter="url(#filter1_f_303_2)">
<rect x="663" y="388" width="46" height="46" rx="18" fill="url(#paint9_linear_303_2)" fill-opacity="0.4"/>
</g>
<g filter="url(#filter2_f_303_2)">
<rect x="706" y="460" width="37" height="37" rx="18" fill="url(#paint10_linear_303_2)" fill-opacity="0.4"/>
</g>
<g filter="url(#filter3_f_303_2)">
<rect x="518" y="180" width="28" height="28" rx="14" fill="url(#paint11_linear_303_2)" fill-opacity="0.4"/>
</g>
<g filter="url(#filter4_f_303_2)">
<rect x="705" y="309" width="22" height="22" rx="11" fill="url(#paint12_linear_303_2)" fill-opacity="0.4"/>
</g>
<rect x="553.312" y="420.775" width="49.0175" height="49.0175" rx="18" fill="url(#paint13_linear_303_2)" fill-opacity="0.4"/>
<path d="M578.267 454.481V459.989C587.604 459.989 594.873 450.969 591.819 441.185C590.484 436.909 587.087 433.512 582.811 432.177C573.027 429.123 564.007 436.393 564.007 445.73H569.528C569.529 445.73 569.53 445.729 569.53 445.729C569.531 439.869 575.329 435.339 581.49 437.574C583.772 438.402 585.593 440.223 586.422 442.505C588.657 448.662 584.134 454.458 578.279 454.467V448.976C578.279 448.976 578.279 448.975 578.278 448.975H572.774C572.774 448.975 572.773 448.976 572.773 448.976V454.481H578.267ZM572.772 458.712H568.543L568.542 458.711V454.481H572.773V458.711C572.773 458.711 572.773 458.712 572.772 458.712ZM568.545 454.481H564.999C564.998 454.481 564.997 454.48 564.997 454.48V450.936C564.997 450.936 564.998 450.933 564.999 450.933H568.542C568.544 450.933 568.545 450.935 568.545 450.935V454.481Z" fill="white"/>
<rect x="531.923" y="259.463" width="114.077" height="114.077" rx="18" fill="url(#paint14_linear_303_2)" fill-opacity="0.4"/>
<g clip-path="url(#clip2_303_2)">
<path d="M588.961 295.112C579.455 295.112 573.513 299.853 571.137 309.335C574.702 304.594 578.861 302.816 583.614 304.001C586.326 304.678 588.264 306.64 590.41 308.812C593.905 312.351 597.95 316.446 606.786 316.446C616.292 316.446 622.234 311.705 624.611 302.224C621.046 306.964 616.887 308.742 612.133 307.557C609.421 306.881 607.483 304.919 605.337 302.746C601.842 299.208 597.797 295.112 588.961 295.112ZM571.137 316.446C561.63 316.446 555.689 321.187 553.312 330.669C556.877 325.928 561.036 324.15 565.789 325.335C568.501 326.012 570.44 327.974 572.585 330.146C576.081 333.685 580.126 337.78 588.961 337.78C598.468 337.78 604.409 333.039 606.786 323.557C603.221 328.298 599.062 330.076 594.309 328.891C591.597 328.215 589.658 326.252 587.513 324.08C584.018 320.542 579.972 316.446 571.137 316.446Z" fill="url(#paint15_linear_303_2)"/>
</g>
<rect x="237" y="217" width="242" height="242" rx="16" fill="url(#paint16_linear_303_2)" fill-opacity="0.4"/>
<path d="M381.333 386V375.333C381.333 369.675 379.086 364.249 375.085 360.248C371.084 356.248 365.658 354 360 354H322.667C317.009 354 311.583 356.248 307.582 360.248C303.581 364.249 301.333 369.675 301.333 375.333V386" stroke="white" stroke-width="6" stroke-linecap="round" stroke-linejoin="round"/>
<path d="M341.333 332.667C353.115 332.667 362.667 323.115 362.667 311.333C362.667 299.551 353.115 290 341.333 290C329.551 290 320 299.551 320 311.333C320 323.115 329.551 332.667 341.333 332.667Z" stroke="white" stroke-width="6" stroke-linecap="round" stroke-linejoin="round"/>
<path d="M402.667 316.667V348.667" stroke="white" stroke-width="6" stroke-linecap="round" stroke-linejoin="round"/>
<path d="M418.667 332.667H386.667" stroke="white" stroke-width="6" stroke-linecap="round" stroke-linejoin="round"/>
<defs>
<filter id="filter0_f_303_2" x="-38" y="298" width="60" height="60" filterUnits="userSpaceOnUse" color-interpolation-filters="sRGB">
<feFlood flood-opacity="0" result="BackgroundImageFix"/>
<feBlend mode="normal" in="SourceGraphic" in2="BackgroundImageFix" result="shape"/>
<feGaussianBlur stdDeviation="4" result="effect1_foregroundBlur_303_2"/>
</filter>
<filter id="filter1_f_303_2" x="655" y="380" width="62" height="62" filterUnits="userSpaceOnUse" color-interpolation-filters="sRGB">
<feFlood flood-opacity="0" result="BackgroundImageFix"/>
<feBlend mode="normal" in="SourceGraphic" in2="BackgroundImageFix" result="shape"/>
<feGaussianBlur stdDeviation="4" result="effect1_foregroundBlur_303_2"/>
</filter>
<filter id="filter2_f_303_2" x="698" y="452" width="53" height="53" filterUnits="userSpaceOnUse" color-interpolation-filters="sRGB">
<feFlood flood-opacity="0" result="BackgroundImageFix"/>
<feBlend mode="normal" in="SourceGraphic" in2="BackgroundImageFix" result="shape"/>
<feGaussianBlur stdDeviation="4" result="effect1_foregroundBlur_303_2"/>
</filter>
<filter id="filter3_f_303_2" x="510" y="172" width="44" height="44" filterUnits="userSpaceOnUse" color-interpolation-filters="sRGB">
<feFlood flood-opacity="0" result="BackgroundImageFix"/>
<feBlend mode="normal" in="SourceGraphic" in2="BackgroundImageFix" result="shape"/>
<feGaussianBlur stdDeviation="4" result="effect1_foregroundBlur_303_2"/>
</filter>
<filter id="filter4_f_303_2" x="697" y="301" width="38" height="38" filterUnits="userSpaceOnUse" color-interpolation-filters="sRGB">
<feFlood flood-opacity="0" result="BackgroundImageFix"/>
<feBlend mode="normal" in="SourceGraphic" in2="BackgroundImageFix" result="shape"/>
<feGaussianBlur stdDeviation="4" result="effect1_foregroundBlur_303_2"/>
</filter>
<linearGradient id="paint0_linear_303_2" x1="160" y1="418" x2="293.5" y2="881" gradientUnits="userSpaceOnUse">
<stop stop-color="white" stop-opacity="0.4"/>
<stop offset="1" stop-color="white" stop-opacity="0"/>
</linearGradient>
<linearGradient id="paint1_linear_303_2" x1="32.9643" y1="206.25" x2="426.332" y2="681.764" gradientUnits="userSpaceOnUse">
<stop stop-color="white"/>
<stop offset="1" stop-color="white" stop-opacity="0"/>
</linearGradient>
<linearGradient id="paint2_linear_303_2" x1="-54.3571" y1="90.5" x2="404.221" y2="644.843" gradientUnits="userSpaceOnUse">
<stop stop-color="white"/>
<stop offset="1" stop-color="white" stop-opacity="0"/>
</linearGradient>
<linearGradient id="paint3_linear_303_2" x1="407" y1="539" x2="701.5" y2="895" gradientUnits="userSpaceOnUse">
<stop stop-color="white"/>
<stop offset="1" stop-color="white" stop-opacity="0"/>
</linearGradient>
<linearGradient id="paint4_linear_303_2" x1="144.937" y1="296.004" x2="144.937" y2="378.888" gradientUnits="userSpaceOnUse">
<stop stop-color="#4F46E5"/>
<stop offset="1" stop-color="#4F46E5" stop-opacity="0"/>
</linearGradient>
<linearGradient id="paint5_linear_303_2" x1="66.9544" y1="410.972" x2="66.9544" y2="460.881" gradientUnits="userSpaceOnUse">
<stop stop-color="#4F46E5"/>
<stop offset="1" stop-color="#4F46E5" stop-opacity="0"/>
</linearGradient>
<linearGradient id="paint6_linear_303_2" x1="88.3439" y1="201.533" x2="88.3439" y2="263.919" gradientUnits="userSpaceOnUse">
<stop stop-color="#4F46E5"/>
<stop offset="1" stop-color="#4F46E5" stop-opacity="0"/>
</linearGradient>
<linearGradient id="paint7_linear_303_2" x1="-8" y1="306" x2="-8" y2="350" gradientUnits="userSpaceOnUse">
<stop stop-color="#6B63EB"/>
<stop offset="1" stop-color="#4F46E5" stop-opacity="0"/>
</linearGradient>
<linearGradient id="paint8_linear_303_2" x1="719.5" y1="187" x2="719.5" y2="252" gradientUnits="userSpaceOnUse">
<stop stop-color="#4F46E5"/>
<stop offset="1" stop-color="#4F46E5" stop-opacity="0"/>
</linearGradient>
<linearGradient id="paint9_linear_303_2" x1="686" y1="388" x2="686" y2="434" gradientUnits="userSpaceOnUse">
<stop stop-color="#6B63EB"/>
<stop offset="1" stop-color="#4F46E5" stop-opacity="0"/>
</linearGradient>
<linearGradient id="paint10_linear_303_2" x1="724.5" y1="460" x2="724.5" y2="497" gradientUnits="userSpaceOnUse">
<stop stop-color="#6B63EB"/>
<stop offset="1" stop-color="#4F46E5" stop-opacity="0"/>
</linearGradient>
<linearGradient id="paint11_linear_303_2" x1="532" y1="180" x2="532" y2="208" gradientUnits="userSpaceOnUse">
<stop stop-color="#6B63EB"/>
<stop offset="1" stop-color="#4F46E5" stop-opacity="0"/>
</linearGradient>
<linearGradient id="paint12_linear_303_2" x1="716" y1="309" x2="716" y2="331" gradientUnits="userSpaceOnUse">
<stop stop-color="#6B63EB"/>
<stop offset="1" stop-color="#4F46E5" stop-opacity="0"/>
</linearGradient>
<linearGradient id="paint13_linear_303_2" x1="577.821" y1="420.775" x2="577.821" y2="469.793" gradientUnits="userSpaceOnUse">
<stop stop-color="#4F46E5"/>
<stop offset="1" stop-color="#4F46E5" stop-opacity="0"/>
</linearGradient>
<linearGradient id="paint14_linear_303_2" x1="588.961" y1="259.463" x2="588.961" y2="373.54" gradientUnits="userSpaceOnUse">
<stop stop-color="#4F46E5"/>
<stop offset="1" stop-color="#4F46E5" stop-opacity="0"/>
</linearGradient>
<linearGradient id="paint15_linear_303_2" x1="551.332" y1="308.766" x2="612.829" y2="344.316" gradientUnits="userSpaceOnUse">
<stop stop-color="white"/>
<stop offset="1" stop-color="white" stop-opacity="0.5"/>
</linearGradient>
<linearGradient id="paint16_linear_303_2" x1="358" y1="217" x2="358" y2="459" gradientUnits="userSpaceOnUse">
<stop stop-color="#4F46E5"/>
<stop offset="1" stop-color="#4F46E5" stop-opacity="0"/>
</linearGradient>
<clipPath id="clip0_303_2">
<rect width="55.2561" height="49.7305" fill="white" transform="translate(117.309 312.58)"/>
</clipPath>
<clipPath id="clip1_303_2">
<rect width="26.7368" height="31.193" fill="white" transform="translate(53.5859 420.775)"/>
</clipPath>
<clipPath id="clip2_303_2">
<rect width="71.2982" height="42.7789" fill="white" transform="translate(553.312 295.112)"/>
</clipPath>
</defs>
</svg>
